PathFileType	3	(X/Y/Z)	E:\ViconData\BIOM9541 2025\Week 7\Wed1100\Hanif deep squat 7-5 Squat 01.trc
DataRate	CameraRate	NumFrames	NumMarkers	Units	OrigDataRate	OrigDataStartFrame	OrigNumFrames
200.0	200.0	11	19	mm	200.0	1151	1840	
Frame#	Time	C7			CLAV			RBAK			LASI			RASI			LPSI			RPSI			LTHI			LKNE			LTIB			LANK			LHEE			LTOE			RTHI			RKNE			RTIB			RANK			RHEE			RTOE			
		X1	Y1	Z1	X2	Y2	Z2	X3	Y3	Z3	X4	Y4	Z4	X5	Y5	Z5	X6	Y6	Z6	X7	Y7	Z7	X8	Y8	Z8	X9	Y9	Z9	X10	Y10	Z10	X11	Y11	Z11	X12	Y12	Z12	X13	Y13	Z13	X14	Y14	Z14	X15	Y15	Z15	X16	Y16	Z16	X17	Y17	Z17	X18	Y18	Z18	X19	Y19	Z19	
1151	5.75	331.55814	1319.9381	-1225.6714	178.67014	1256.8286	-1214.4271	339.26328	1240.3722	-1376.2389	206.90446	883.26416	-1092.7413	206.89226	892.39679	-1355.8357	376.07346	946.66693	-1177.7653	377.23544	943.58655	-1250.7971	240.11465	564.43066	-1008.891	242.33665	423.80054	-1012.5617	279.77087	221.13695	-989.34955	301.15906	63.891663	-1005.6636	318.53955	49.810917	-1066.2324	158.61226	37.779034	-968.0191	267.04056	736.36841	-1420.2356	270.5863	422.80731	-1427.1226	285.27515	334.93927	-1445.2966	304.37183	72.692345	-1428.1654	323.1619	47.988472	-1365.666	162.60764	40.036346	-1463.5453
1152	5.755	331.68631	1320.0991	-1225.7878	178.69739	1257.2416	-1214.5135	339.23578	1240.4279	-1376.3496	206.26402	883.58221	-1092.6458	206.09796	892.55157	-1355.7451	375.32336	946.79218	-1177.667	377.01886	943.58948	-1251.674	240.67123	564.2489	-1009.4527	243.55804	423.7756	-1013.3154	280.39981	221.15158	-989.75592	301.24252	63.889294	-1005.7339	318.49387	49.797459	-1066.3016	158.61618	37.790501	-968.01227	266.47162	736.37073	-1420.0776	271.92349	422.88828	-1426.3793	286.47314	334.97534	-1444.7389	304.50119	72.739807	-1428.0839	323.15897	47.968853	-1365.5681	162.61951	40.065189	-1463.5762
1153	5.76	331.81796	1320.2794	-1225.9294	178.53482	1257.7833	-1214.781	339.18921	1240.4928	-1376.4562	205.59413	883.74152	-1092.5972	205.2672	892.71844	-1355.6741	374.61218	946.94647	-1177.6545	375.62518	943.70813	-1250.9386	241.24532	564.06573	-1009.9879	244.70351	423.75259	-1013.9729	281.0451	221.12593	-990.17291	301.33484	64.197067	-1005.617	318.46967	49.802204	-1066.3661	158.61731	37.791298	-968.01038	265.9325	736.39429	-1419.9747	273.16977	422.98792	-1425.6921	287.56143	335.12491	-1444.2877	304.62155	72.842987	-1428.0312	323.11115	48.036301	-1365.3419	162.59959	40.13649	-1463.6549
1154	5.765	331.93524	1320.3644	-1226.0702	178.67429	1257.9399	-1214.6432	339.14462	1240.4694	-1376.571	204.91786	883.85968	-1092.5038	204.4917	892.84344	-1355.5981	373.9679	947.0166	-1177.7559	374.97977	943.86267	-1251.1345	241.75456	563.88	-1010.415	245.80864	423.7063	-1014.639	281.61279	221.13611	-990.53021	301.37985	63.851082	-1005.9529	318.77164	50.023335	-1066.7455	158.60736	37.783253	-967.99493	265.43039	736.37024	-1419.859	274.31183	423.0582	-1425.0746	288.60712	335.12088	-1443.8108	304.71417	72.85778	-1427.9688	323.12411	47.99448	-1365.3491	162.60144	40.162239	-1463.7101
1155	5.77	332.08221	1320.4086	-1226.2188	178.71292	1258.2521	-1214.7023	339.12622	1240.3999	-1376.7039	204.33849	884.07361	-1092.4175	203.79636	892.92249	-1355.5697	373.35699	946.97638	-1178.0449	374.89407	943.81433	-1251.9573	242.24068	563.82288	-1010.761	246.91185	423.75107	-1015.2062	282.17291	221.27441	-990.81024	301.50507	63.886242	-1006.0784	318.50131	49.675053	-1066.5017	158.59674	37.790493	-967.9718	264.94037	736.29633	-1419.8245	275.36902	422.98303	-1424.4937	289.59723	335.12448	-1443.432	304.86752	72.77533	-1427.925	323.20749	47.89167	-1365.567	162.61356	40.126209	-1463.7987
1156	5.775	332.20337	1320.3925	-1226.3279	178.77356	1258.6234	-1214.7389	339.1087	1240.3422	-1376.8273	203.7189	884.29285	-1092.3088	203.1241	892.90216	-1355.5208	372.78812	946.98248	-1178.3578	374.30356	943.86371	-1252.0885	242.76254	563.79163	-1011.1198	247.78954	423.8186	-1015.6364	282.67325	221.36554	-991.04218	301.63052	63.869633	-1006.2255	318.84464	49.785069	-1066.8522	158.59109	37.817646	-967.9873	264.45343	736.20343	-1419.8225	276.37766	422.85532	-1423.9885	290.44727	335.06821	-1443.046	304.97675	72.707794	-1427.8898	323.27136	47.898342	-1365.5754	162.62912	40.085861	-1463.8651
1157	5.78	332.29739	1320.3362	-1226.4106	178.52066	1259.0782	-1215.3334	339.03241	1240.2595	-1376.9596	203.13454	884.36151	-1092.2291	202.47554	892.96393	-1355.5155	372.19443	947.00494	-1178.3757	373.06583	943.92908	-1251.375	243.25485	563.66217	-1011.4304	248.72124	423.74844	-1016.1444	283.18719	221.36105	-991.36713	301.7265	63.793739	-1006.3529	318.83298	49.716072	-1066.8873	158.59357	37.817814	-967.95947	263.98602	736.07654	-1419.809	277.23856	422.96268	-1423.5254	291.24591	335.08862	-1442.7302	305.05008	72.705345	-1427.856	322.57257	48.710506	-1362.8713	162.62465	40.088615	-1463.8815
1158	5.785	332.38181	1320.2786	-1226.5376	178.84103	1259.0269	-1214.9697	338.96451	1240.0625	-1377.0613	202.63104	884.39111	-1092.2533	201.8286	893.01862	-1355.479	371.60629	947.01898	-1178.2747	373.05194	943.81335	-1252.2128	243.71904	563.48865	-1011.7421	249.55396	423.64407	-1016.5919	283.60614	221.3186	-991.58636	301.70889	63.795982	-1006.3563	318.78482	49.756042	-1066.9312	158.60677	37.797974	-967.91833	263.50974	736.04346	-1419.796	278.03192	422.99139	-1423.0854	291.90784	335.17667	-1442.3873	305.09619	72.801506	-1427.7822	323.2565	47.891369	-1365.5859	162.60243	40.136963	-1463.9226
1159	5.79	332.47562	1320.2157	-1226.6744	178.84671	1259.1339	-1215.0156	338.89606	1239.9263	-1377.1586	202.06781	884.44244	-1092.2493	201.25557	893.04663	-1355.4885	371.03378	947.01025	-1178.2384	372.42596	943.68188	-1252.2667	244.07793	563.35046	-1011.9797	250.35358	423.5047	-1017.015	283.98294	221.33519	-991.76056	301.75543	63.785114	-1006.3872	318.77744	49.756485	-1066.9896	158.62122	37.7812	-967.90173	263.00668	736.03864	-1419.8054	278.71066	423.05167	-1422.6863	292.50085	335.21744	-1442.1233	305.14798	72.87236	-1427.7628	322.49118	48.727509	-1362.6704	162.57214	40.205372	-1464.0026
1160	5.795	332.56308	1320.1659	-1226.7726	178.63109	1259.5199	-1215.489	338.91556	1239.8606	-1377.2786	201.52545	884.49036	-1092.1715	200.71184	893.00616	-1355.49	370.52689	946.95087	-1178.2535	371.9231	943.69128	-1252.3202	244.46999	563.24371	-1012.2618	251.01656	423.55121	-1017.2997	284.3685	221.26399	-992.02649	301.80029	63.752728	-1006.4612	318.78909	49.739647	-1067.0278	158.60754	37.771168	-967.86853	262.5575	735.97583	-1419.8228	279.41589	423.07141	-1422.3485	293.04929	335.24753	-1441.8209	305.2287	72.894974	-1427.7255	322.49014	48.74213	-1362.6869	162.55518	40.235527	-1464.0677
1161	5.8	332.65149	1320.1158	-1226.8892	178.88608	1259.4307	-1215.2511	338.88931	1239.7133	-1377.347	201.05827	884.56055	-1092.1553	200.22594	893.05463	-1355.54	370.05264	946.90277	-1178.4562	370.90295	943.8761	-1251.6405	244.79562	563.17798	-1012.4818	251.66434	423.53021	-1017.65	284.70383	221.33313	-992.23523	301.88303	63.761883	-1006.5519	318.78955	49.647171	-1067.064	158.62677	37.783401	-967.88348	262.16064	735.85791	-1419.8391	279.97668	423.05847	-1421.9937	293.5603	335.24768	-1441.55	305.29849	72.861534	-1427.6854	322.52576	48.758717	-1362.7733	162.57411	40.167671	-1464.0975
